<mxfile host="app.diagrams.net" modified="2021-06-11T02:52:18.699Z" agent="5.0 (Windows NT 10.0; Win64; x64) AppleWebKit/537.36 (KHTML, like Gecko) Chrome/86.0.4240.183 Safari/537.36" etag="PrTv-QhLiB8isqJtrbk0" version="14.7.6" type="github">
  <diagram id="kOfQxLLii9AgWAtwwRpR" name="第 1 页">
    <mxGraphModel dx="1422" dy="762" grid="1" gridSize="10" guides="1" tooltips="1" connect="1" arrows="1" fold="1" page="1" pageScale="1" pageWidth="1169" pageHeight="827" math="0" shadow="0">
      <root>
        <mxCell id="0" />
        <mxCell id="1" parent="0" />
        <mxCell id="81oOPyXd3vN5GArt1y_k-1" value="" style="rounded=0;whiteSpace=wrap;html=1;" vertex="1" parent="1">
          <mxGeometry x="520" y="360" width="120" height="60" as="geometry" />
        </mxCell>
        <mxCell id="81oOPyXd3vN5GArt1y_k-5" value="&lt;div&gt;&lt;span style=&quot;font-size: 20px&quot;&gt;&lt;br&gt;&lt;/span&gt;&lt;/div&gt;&lt;div&gt;&lt;span style=&quot;font-size: 20px&quot;&gt;&lt;br&gt;&lt;/span&gt;&lt;/div&gt;&lt;div&gt;&lt;span style=&quot;font-size: 20px&quot;&gt;&lt;br&gt;&lt;/span&gt;&lt;/div&gt;&lt;div&gt;&lt;span style=&quot;font-size: 20px&quot;&gt;&lt;br&gt;&lt;/span&gt;&lt;/div&gt;&lt;div&gt;&lt;span style=&quot;font-size: 20px&quot;&gt;&lt;br&gt;&lt;/span&gt;&lt;/div&gt;&lt;div&gt;&lt;span style=&quot;font-size: 20px&quot;&gt;&lt;br&gt;&lt;/span&gt;&lt;/div&gt;&lt;div&gt;&lt;span style=&quot;font-size: 20px&quot;&gt;&lt;br&gt;&lt;/span&gt;&lt;/div&gt;&lt;div&gt;&lt;span style=&quot;font-size: 20px&quot;&gt;&lt;br&gt;&lt;/span&gt;&lt;/div&gt;&lt;div&gt;&lt;span style=&quot;font-size: 20px&quot;&gt;&lt;br&gt;&lt;/span&gt;&lt;/div&gt;&lt;div&gt;&lt;span style=&quot;font-size: 20px&quot;&gt;&lt;br&gt;&lt;/span&gt;&lt;/div&gt;&lt;div&gt;&lt;span style=&quot;font-size: 20px&quot;&gt;&lt;br&gt;&lt;/span&gt;&lt;/div&gt;&lt;div&gt;&lt;span style=&quot;font-size: 20px&quot;&gt;&lt;br&gt;&lt;/span&gt;&lt;/div&gt;&lt;div&gt;&lt;span style=&quot;font-size: 20px&quot;&gt;&lt;br&gt;&lt;/span&gt;&lt;/div&gt;&lt;div&gt;&lt;span style=&quot;font-size: 20px&quot;&gt;&lt;br&gt;&lt;/span&gt;&lt;/div&gt;&lt;div&gt;&lt;span style=&quot;font-size: 20px&quot;&gt;&lt;br&gt;&lt;/span&gt;&lt;/div&gt;&lt;div&gt;&lt;span style=&quot;font-size: 20px&quot;&gt;&lt;br&gt;&lt;/span&gt;&lt;/div&gt;&lt;div&gt;&lt;span style=&quot;font-size: 20px&quot;&gt;&lt;br&gt;&lt;/span&gt;&lt;/div&gt;&lt;div&gt;&lt;span style=&quot;font-size: 20px&quot;&gt;&lt;br&gt;&lt;/span&gt;&lt;/div&gt;&lt;div&gt;&lt;span style=&quot;font-size: 20px&quot;&gt;&lt;br&gt;&lt;/span&gt;&lt;/div&gt;&lt;div&gt;&lt;span style=&quot;font-size: 20px&quot;&gt;&lt;br&gt;&lt;/span&gt;&lt;/div&gt;&lt;div&gt;&lt;span style=&quot;font-size: 20px&quot;&gt;&lt;br&gt;&lt;/span&gt;&lt;/div&gt;&lt;div&gt;&lt;span style=&quot;font-size: 20px&quot;&gt;&lt;br&gt;&lt;/span&gt;&lt;/div&gt;&lt;div&gt;&lt;span style=&quot;font-size: 20px&quot;&gt;Electron&lt;/span&gt;&lt;/div&gt;" style="rounded=0;whiteSpace=wrap;html=1;fillColor=#dae8fc;strokeColor=#6c8ebf;align=center;" vertex="1" parent="1">
          <mxGeometry x="250" y="100" width="750" height="600" as="geometry" />
        </mxCell>
        <mxCell id="81oOPyXd3vN5GArt1y_k-6" value="&lt;font style=&quot;font-size: 20px&quot;&gt;&lt;br&gt;&lt;br&gt;&lt;br&gt;&lt;br&gt;&lt;br&gt;&lt;br&gt;&lt;br&gt;&lt;br&gt;&lt;br&gt;&lt;br&gt;&lt;br&gt;&lt;br&gt;&lt;br&gt;Vscode&lt;/font&gt;" style="rounded=0;whiteSpace=wrap;html=1;fillColor=#ffe6cc;strokeColor=#d79b00;" vertex="1" parent="1">
          <mxGeometry x="250" y="110" width="560" height="520" as="geometry" />
        </mxCell>
        <mxCell id="81oOPyXd3vN5GArt1y_k-7" value="&lt;font style=&quot;font-size: 20px&quot;&gt;Vscode 插件&lt;/font&gt;" style="rounded=0;whiteSpace=wrap;html=1;fillColor=#1ba1e2;strokeColor=#006EAF;fontColor=#ffffff;" vertex="1" parent="1">
          <mxGeometry x="280" y="130" width="350" height="370" as="geometry" />
        </mxCell>
        <mxCell id="81oOPyXd3vN5GArt1y_k-8" value="&lt;span style=&quot;font-size: 20px&quot;&gt;终端&lt;/span&gt;" style="rounded=0;whiteSpace=wrap;html=1;fillColor=#d80073;strokeColor=#A50040;fontColor=#ffffff;" vertex="1" parent="1">
          <mxGeometry x="660" y="130" width="110" height="60" as="geometry" />
        </mxCell>
        <mxCell id="81oOPyXd3vN5GArt1y_k-9" value="&lt;span style=&quot;font-size: 20px&quot;&gt;编辑器&lt;/span&gt;" style="rounded=0;whiteSpace=wrap;html=1;fillColor=#e3c800;strokeColor=#B09500;fontColor=#000000;" vertex="1" parent="1">
          <mxGeometry x="660" y="210" width="110" height="60" as="geometry" />
        </mxCell>
        <mxCell id="81oOPyXd3vN5GArt1y_k-10" value="&lt;span style=&quot;font-size: 20px&quot;&gt;控制台&lt;/span&gt;" style="rounded=0;whiteSpace=wrap;html=1;fillColor=#b1ddf0;strokeColor=#10739e;" vertex="1" parent="1">
          <mxGeometry x="660" y="290" width="110" height="60" as="geometry" />
        </mxCell>
        <mxCell id="81oOPyXd3vN5GArt1y_k-11" value="&lt;span style=&quot;font-size: 20px&quot;&gt;...&lt;/span&gt;" style="rounded=0;whiteSpace=wrap;html=1;gradientColor=#ea6b66;fillColor=#f8cecc;strokeColor=#b85450;" vertex="1" parent="1">
          <mxGeometry x="660" y="560" width="110" height="60" as="geometry" />
        </mxCell>
        <mxCell id="81oOPyXd3vN5GArt1y_k-12" value="&lt;span style=&quot;font-size: 20px&quot;&gt;选项卡&lt;/span&gt;" style="rounded=0;whiteSpace=wrap;html=1;fillColor=#dae8fc;strokeColor=#6c8ebf;" vertex="1" parent="1">
          <mxGeometry x="300" y="150" width="90" height="60" as="geometry" />
        </mxCell>
        <mxCell id="81oOPyXd3vN5GArt1y_k-14" value="&lt;span style=&quot;font-size: 20px&quot;&gt;发开人员&lt;br&gt;工具&lt;/span&gt;" style="rounded=0;whiteSpace=wrap;html=1;fillColor=#e1d5e7;strokeColor=#9673a6;" vertex="1" parent="1">
          <mxGeometry x="660" y="370" width="110" height="60" as="geometry" />
        </mxCell>
        <mxCell id="81oOPyXd3vN5GArt1y_k-15" value="&lt;span style=&quot;font-size: 20px&quot;&gt;菜单&lt;/span&gt;" style="rounded=0;whiteSpace=wrap;html=1;fillColor=#fa6800;strokeColor=#C73500;fontColor=#000000;" vertex="1" parent="1">
          <mxGeometry x="660" y="460" width="110" height="60" as="geometry" />
        </mxCell>
        <mxCell id="81oOPyXd3vN5GArt1y_k-16" value="&lt;span style=&quot;font-size: 20px&quot;&gt;视图&lt;/span&gt;" style="rounded=0;whiteSpace=wrap;html=1;fillColor=#f0a30a;strokeColor=#BD7000;fontColor=#000000;" vertex="1" parent="1">
          <mxGeometry x="300" y="230" width="90" height="60" as="geometry" />
        </mxCell>
        <mxCell id="81oOPyXd3vN5GArt1y_k-17" value="&lt;span style=&quot;font-size: 20px&quot;&gt;webview&lt;/span&gt;" style="rounded=0;whiteSpace=wrap;html=1;fillColor=#e3c800;strokeColor=#B09500;fontColor=#000000;" vertex="1" parent="1">
          <mxGeometry x="300" y="340" width="90" height="60" as="geometry" />
        </mxCell>
        <mxCell id="81oOPyXd3vN5GArt1y_k-18" value="&lt;span style=&quot;font-size: 20px&quot;&gt;状态栏&lt;/span&gt;" style="rounded=0;whiteSpace=wrap;html=1;fillColor=#f8cecc;strokeColor=#b85450;" vertex="1" parent="1">
          <mxGeometry x="300" y="420" width="90" height="60" as="geometry" />
        </mxCell>
        <mxCell id="81oOPyXd3vN5GArt1y_k-19" value="&lt;span style=&quot;font-size: 20px&quot;&gt;树视图&lt;/span&gt;" style="rounded=0;whiteSpace=wrap;html=1;fillColor=#d5e8d4;strokeColor=#82b366;" vertex="1" parent="1">
          <mxGeometry x="420" y="230" width="90" height="60" as="geometry" />
        </mxCell>
        <mxCell id="81oOPyXd3vN5GArt1y_k-20" value="&lt;span style=&quot;font-size: 20px&quot;&gt;设置&lt;/span&gt;" style="rounded=0;whiteSpace=wrap;html=1;fillColor=#d5e8d4;strokeColor=#82b366;" vertex="1" parent="1">
          <mxGeometry x="485" y="560" width="105" height="60" as="geometry" />
        </mxCell>
        <mxCell id="81oOPyXd3vN5GArt1y_k-21" value="&lt;span style=&quot;font-size: 20px&quot;&gt;账号登录&lt;/span&gt;" style="rounded=0;whiteSpace=wrap;html=1;fillColor=#60a917;strokeColor=#2D7600;fontColor=#ffffff;" vertex="1" parent="1">
          <mxGeometry x="350" y="560" width="105" height="60" as="geometry" />
        </mxCell>
        <mxCell id="81oOPyXd3vN5GArt1y_k-22" value="&lt;span style=&quot;font-size: 20px&quot;&gt;命令&lt;/span&gt;" style="rounded=0;whiteSpace=wrap;html=1;fillColor=#fa6800;strokeColor=#C73500;fontColor=#000000;" vertex="1" parent="1">
          <mxGeometry x="420" y="150" width="90" height="60" as="geometry" />
        </mxCell>
        <mxCell id="81oOPyXd3vN5GArt1y_k-23" value="&lt;span style=&quot;font-size: 20px&quot;&gt;任务&lt;/span&gt;" style="rounded=0;whiteSpace=wrap;html=1;fillColor=#cdeb8b;strokeColor=#36393d;" vertex="1" parent="1">
          <mxGeometry x="420" y="340" width="90" height="60" as="geometry" />
        </mxCell>
        <mxCell id="81oOPyXd3vN5GArt1y_k-24" value="&lt;span style=&quot;font-size: 20px&quot;&gt;虚拟文档&lt;/span&gt;" style="rounded=0;whiteSpace=wrap;html=1;fillColor=#f0a30a;strokeColor=#BD7000;fontColor=#000000;" vertex="1" parent="1">
          <mxGeometry x="420" y="420" width="190" height="60" as="geometry" />
        </mxCell>
        <mxCell id="81oOPyXd3vN5GArt1y_k-25" value="&lt;font style=&quot;font-size: 20px&quot;&gt;按钮菜单&lt;/font&gt;" style="rounded=0;whiteSpace=wrap;html=1;fillColor=#e51400;strokeColor=#B20000;fontColor=#ffffff;" vertex="1" parent="1">
          <mxGeometry x="530" y="150" width="90" height="60" as="geometry" />
        </mxCell>
        <mxCell id="81oOPyXd3vN5GArt1y_k-26" value="&lt;span style=&quot;font-size: 20px&quot;&gt;设置&lt;/span&gt;" style="rounded=0;whiteSpace=wrap;html=1;fillColor=#fa6800;strokeColor=#C73500;fontColor=#000000;" vertex="1" parent="1">
          <mxGeometry x="530" y="230" width="90" height="60" as="geometry" />
        </mxCell>
      </root>
    </mxGraphModel>
  </diagram>
</mxfile>
